<?xml version="1.0" encoding="UTF-8"?>
<!DOCTYPE svg PUBLIC "-//W3C//DTD SVG 1.1//EN" "http://www.w3.org/Graphics/SVG/1.1/DTD/svg11.dtd">
<!-- Creator: CorelDRAW 2017 -->
<svg xmlns="http://www.w3.org/2000/svg" xml:space="preserve" width="1.01332in" height="1.01331in" version="1.1" style="shape-rendering:geometricPrecision; text-rendering:geometricPrecision; image-rendering:optimizeQuality; fill-rule:evenodd; clip-rule:evenodd"
viewBox="0 0 187.89 187.89"
 xmlns:xlink="http://www.w3.org/1999/xlink">
 <defs>
  <style type="text/css">
   <![CDATA[
    .fil1 {fill:#464747;fill-opacity:0.309804}
    .fil3 {fill:#373435;fill-opacity:0.400000}
    .fil2 {fill:#373435;fill-opacity:0.509804}
    .fil0 {fill:#373435;fill-opacity:0.619608}
   ]]>
  </style>
 </defs>
 <g id="Layer_x0020_1">
  <metadata id="CorelCorpID_0Corel-Layer"/>
  <polygon class="fil0" points="146.54,60.91 154.59,41.49 162.77,33.3 187.89,93.95 154.5,80.11 "/>
  <polygon class="fil0" points="107.78,33.39 93.95,0 154.59,25.12 146.4,33.3 126.98,41.35 "/>
  <polygon class="fil0" points="60.91,41.35 41.49,33.3 33.3,25.12 93.95,0 80.11,33.39 "/>
  <polygon class="fil0" points="33.39,80.11 0,93.95 25.12,33.3 33.31,41.49 41.35,60.91 "/>
  <polygon class="fil0" points="41.35,126.98 33.3,146.4 25.12,154.59 0,93.95 33.39,107.78 "/>
  <polygon class="fil0" points="80.11,154.5 93.95,187.89 33.3,162.77 41.49,154.59 60.91,146.54 "/>
  <polygon class="fil0" points="126.98,146.54 146.4,154.59 154.59,162.77 93.95,187.89 107.78,154.5 "/>
  <polygon class="fil0" points="154.5,107.78 187.89,93.95 162.77,154.59 154.59,146.4 146.54,126.98 "/>
  <polygon class="fil1" points="27.65,93.95 13.92,60.8 41.28,49.47 44.67,52.86 "/>
  <polygon class="fil1" points="41.28,138.43 13.92,127.09 27.65,93.95 44.67,135.04 "/>
  <polygon class="fil1" points="138.43,146.61 127.09,173.97 93.95,160.24 135.04,143.22 "/>
  <polygon class="fil1" points="93.95,160.24 60.8,173.97 49.47,146.61 52.86,143.22 "/>
  <polygon class="fil1" points="160.24,93.95 173.97,127.09 146.61,138.43 143.22,135.04 "/>
  <polygon class="fil1" points="146.61,49.47 173.97,60.8 160.24,93.95 143.22,52.86 "/>
  <polygon class="fil1" points="49.47,41.28 60.8,13.92 93.95,27.65 52.86,44.67 "/>
  <polygon class="fil1" points="93.95,27.65 127.09,13.92 138.43,41.28 135.04,44.67 "/>
  <polygon class="fil2" points="80.11,33.39 93.95,0 107.78,33.39 93.95,27.66 "/>
  <path class="fil3" d="M41.35 60.91l-8.04 -19.42 11.38 11.38 -3.33 8.04zm0.14 -27.61l19.42 8.05 -8.05 3.33 -11.38 -11.38z"/>
  <polygon class="fil2" points="33.39,107.78 -0,93.95 33.39,80.11 27.66,93.95 "/>
  <polygon class="fil2" points="107.78,154.5 93.95,187.89 80.11,154.5 93.95,160.23 "/>
  <path class="fil3" d="M146.54 126.98l8.04 19.42 -11.38 -11.38 3.33 -8.04zm-0.14 27.61l-19.42 -8.04 8.05 -3.33 11.38 11.38z"/>
  <polygon class="fil2" points="154.5,80.11 187.89,93.95 154.5,107.78 160.23,93.95 "/>
  <path class="fil3" d="M126.98 41.35l19.42 -8.04 -11.38 11.38 -8.04 -3.33zm27.61 0.14l-8.05 19.42 -3.33 -8.04 11.38 -11.38z"/>
  <path class="fil3" d="M60.91 146.54l-19.42 8.04 11.38 -11.38 8.04 3.33zm-27.61 -0.14l8.04 -19.42 3.33 8.04 -11.38 11.38z"/>
 </g>
</svg>
